<svg version="1.1" id="AppMenuLogo" viewBox="0 0 374.4 57.6" style="width: 100%; height: 100%;"> <g class="XMLID_3695_"><g class="XMLID_51_"><path pid="0" class="XMLID_57_ st0" d="M28.5 0C10 0 0 15.1 0 29.4c0 16.1 11.8 28.2 27.5 28.2 16.7 0 28.3-12.1 28.3-29.5C55.8 9.8 41.8 0 28.5 0zm-1.3 3.8h.8c13.7.7 19.1 14.3 18.5 27.5C45.8 45 38.9 53.8 29 53.8h-.8C16.5 53.2 8.7 41.6 9.4 26.1 10 15 15.7 3.8 27.2 3.8z"></path><path pid="1" class="XMLID_56_ st0" d="M107.7 26.5c5-1.7 10.3-5.2 10.3-12.5 0-4-1.9-7.8-4.8-9.9-2.8-2-6.8-2.9-12.8-2.9H80.1v3.3h.4c4.7.5 5.1 1 5.1 7.4v33.7c0 6.1-.3 6.9-5.4 7.4h-.4v3.3h16.9c7 0 12.4-1.1 16.6-3.4 5.3-2.8 8.1-7.5 8.1-13 .1-7.2-4.5-11.7-13.7-13.4zM98.9 4.7c6.7 0 10.7 3.8 10.7 10.3 0 6.8-3.8 10-11.8 10.2h-.4v3.7h.4c9.9.2 14.7 4.1 14.7 11.8 0 3.5-1.2 11.7-12.5 11.9h-6.4V4.7h5.3z"></path><path pid="2" class="XMLID_55_ st0" d="M255.7 50.2c-2-2.1-3.6-4.2-6.7-8.6-2.4-3.5-5.7-8.8-7.2-11.6 6.9-3.3 10.4-8.1 10.4-14.5 0-4.9-2.1-8.9-5.8-11.3-3-2-7.1-2.9-13.5-2.9h-19.2v3.3h.4c4.4.5 4.9 1.2 4.9 7.3v33.6c0 6.2-.5 7-4.9 7.5h-.4v3.3h18.4V53h-.4c-4.4-.5-5-1.3-5-7.5V8.9 4.8H231.9c3.5.1 11.5 1.3 11.5 11.9 0 4.5-1.4 7.7-4.4 10-1.8 1.5-4.2 2.2-8.1 2.3h-.4v3.6h.4c2.6.3 3.7 1.3 4.8 3 .5.9 1.1 1.8 1.6 2.7 2.1 3.5 4.5 7.4 6.8 10.7 3.8 5.5 7.3 7.4 13.8 7.8.9.1 2 .1 3 .1h.3l.4-2.9-.3-.1c-1.5-.3-3.4-1.1-5.6-3.7z"></path><path pid="3" class="XMLID_54_ st0" d="M374.2 54.1c-.5-2.2-.6-4.7-.6-7.8v-7.2c0-1.2.1-8.3.1-8.3v-.4h-13.5v3.4h.4c4.8.6 5.1 1.4 5.1 6.5v7.1c0 3.5-1.1 4.4-2.4 5.1-1.8.9-4.3 1.4-7.1 1.4-11 0-22.8-8.1-22.8-25.7 0-14.8 8.3-24.4 21.1-24.4 9.3 0 14.2 3.9 15.9 12.7l.1.4 2.7-.7V2.5l-.3-.1c-.4-.1-.9-.2-1.5-.3-3.4-.8-9-2.1-15-2.1-8.6 0-16.6 2.6-22.3 7.2-6.5 5.2-10 12.8-10 21.9 0 17 12.5 28.5 31.1 28.5 5.8 0 11.8-1.4 16.6-2.5.7-.2 1.5-.3 2.2-.5l.4-.1-.2-.4z"></path><path pid="4" class="XMLID_53_ st0" d="M185.2 44.2c-1 2.4-2.2 4.5-3.3 5.8-1.8 2.1-4.1 2.7-10.2 2.7h-10.3V29.9l7.3.1 12 1.1v-6.8l-11.9 1.4-7.4.1V4.9H172c4.4.1 6.2.7 7.2 2.2 1 1.6 1.7 3.2 2.2 5.4l.1.4 3.5-.6-.2-2.7c-.2-3.2-.4-6.5-.4-8v-.4h-36.6v3.2h.4c4.8.4 5.4.9 5.4 7.7v33.2c0 5.9-.4 6.9-6 7.5h-.4v3.3h39.1l.1-.3c.6-2 1.7-7.1 2.5-10.9l.1-.4-3.5-.8-.3.5z"></path><path pid="5" class="XMLID_52_ st0" d="M282 4.5h.4c4.5.5 5 1.3 5 7.5v33.4c0 6.2-.5 7-5 7.5h-.4v3.3h18.9v-3.3h-.4c-4.8-.5-5.3-1.2-5.3-7.5V12c0-6.3.5-7.1 5.3-7.5h.4V1.2H282v3.3z"></path></g><g class="XMLID_44_"><path pid="6" class="XMLID_50_ st1" d="M28.5 0C10 0 0 15.1 0 29.4c0 16.1 11.8 28.2 27.5 28.2 16.7 0 28.3-12.1 28.3-29.5C55.8 9.8 41.8 0 28.5 0zm-1.3 3.8h.8c13.7.7 19.1 14.3 18.5 27.5C45.8 45 38.9 53.8 29 53.8h-.8C16.5 53.2 8.7 41.6 9.4 26.1 10 15 15.7 3.8 27.2 3.8z"></path><path pid="7" class="XMLID_49_ st2" d="M107.7 26.5c5-1.7 10.3-5.2 10.3-12.5 0-4-1.9-7.8-4.8-9.9-2.8-2-6.8-2.9-12.8-2.9H80.1v3.3h.4c4.7.5 5.1 1 5.1 7.4v33.7c0 6.1-.3 6.9-5.4 7.4h-.4v3.3h16.9c7 0 12.4-1.1 16.6-3.4 5.3-2.8 8.1-7.5 8.1-13 .1-7.2-4.5-11.7-13.7-13.4zM98.9 4.7c6.7 0 10.7 3.8 10.7 10.3 0 6.8-3.8 10-11.8 10.2h-.4v3.7h.4c9.9.2 14.7 4.1 14.7 11.8 0 3.5-1.2 11.7-12.5 11.9h-6.4V4.7h5.3z"></path><path pid="8" class="XMLID_48_ st3" d="M255.7 50.2c-2-2.1-3.6-4.2-6.7-8.6-2.4-3.5-5.7-8.8-7.2-11.6 6.9-3.3 10.4-8.1 10.4-14.5 0-4.9-2.1-8.9-5.8-11.3-3-2-7.1-2.9-13.5-2.9h-19.2v3.3h.4c4.4.5 4.9 1.2 4.9 7.3v33.6c0 6.2-.5 7-4.9 7.5h-.4v3.3h18.4V53h-.4c-4.4-.5-5-1.3-5-7.5V8.9 4.8H231.9c3.5.1 11.5 1.3 11.5 11.9 0 4.5-1.4 7.7-4.4 10-1.8 1.5-4.2 2.2-8.1 2.3h-.4v3.6h.4c2.6.3 3.7 1.3 4.8 3 .5.9 1.1 1.8 1.6 2.7 2.1 3.5 4.5 7.4 6.8 10.7 3.8 5.5 7.3 7.4 13.8 7.8.9.1 2 .1 3 .1h.3l.4-2.9-.3-.1c-1.5-.3-3.4-1.1-5.6-3.7z"></path><path pid="9" class="XMLID_47_ st4" d="M374.2 54.1c-.5-2.2-.6-4.7-.6-7.8v-7.2c0-1.2.1-8.3.1-8.3v-.4h-13.5v3.4h.4c4.8.6 5.1 1.4 5.1 6.5v7.1c0 3.5-1.1 4.4-2.4 5.1-1.8.9-4.3 1.4-7.1 1.4-11 0-22.8-8.1-22.8-25.7 0-14.8 8.3-24.4 21.1-24.4 9.3 0 14.2 3.9 15.9 12.7l.1.4 2.7-.7V2.5l-.3-.1c-.4-.1-.9-.2-1.5-.3-3.4-.8-9-2.1-15-2.1-8.6 0-16.6 2.6-22.3 7.2-6.5 5.2-10 12.8-10 21.9 0 17 12.5 28.5 31.1 28.5 5.8 0 11.8-1.4 16.6-2.5.7-.2 1.5-.3 2.2-.5l.4-.1-.2-.4z"></path><path pid="10" class="XMLID_46_ st5" d="M185.2 44.2c-1 2.4-2.2 4.5-3.3 5.8-1.8 2.1-4.1 2.7-10.2 2.7h-10.3V29.9l7.3.1 12 1.1v-6.8l-11.9 1.4-7.4.1V4.9H172c4.4.1 6.2.7 7.2 2.2 1 1.6 1.7 3.2 2.2 5.4l.1.4 3.5-.6-.2-2.7c-.2-3.2-.4-6.5-.4-8v-.4h-36.6v3.2h.4c4.8.4 5.4.9 5.4 7.7v33.2c0 5.9-.4 6.9-6 7.5h-.4v3.3h39.1l.1-.3c.6-2 1.7-7.1 2.5-10.9l.1-.4-3.5-.8-.3.5z"></path><path pid="11" class="XMLID_45_ st6" d="M282 4.5h.4c4.5.5 5 1.3 5 7.5v33.4c0 6.2-.5 7-5 7.5h-.4v3.3h18.9v-3.3h-.4c-4.8-.5-5.3-1.2-5.3-7.5V12c0-6.3.5-7.1 5.3-7.5h.4V1.2H282v3.3z"></path></g><g class="XMLID_37_"><path pid="12" class="XMLID_43_ st7" d="M28.5 0C10 0 0 15.1 0 29.4c0 16.1 11.8 28.2 27.5 28.2 16.7 0 28.3-12.1 28.3-29.5C55.8 9.8 41.8 0 28.5 0zm-1.3 3.8h.8c13.7.7 19.1 14.3 18.5 27.5C45.8 45 38.9 53.8 29 53.8h-.8C16.5 53.2 8.7 41.6 9.4 26.1 10 15 15.7 3.8 27.2 3.8z"></path><path pid="13" class="XMLID_42_ st7" d="M107.7 26.5c5-1.7 10.3-5.2 10.3-12.5 0-4-1.9-7.8-4.8-9.9-2.8-2-6.8-2.9-12.8-2.9H80.1v3.3h.4c4.7.5 5.1 1 5.1 7.4v33.7c0 6.1-.3 6.9-5.4 7.4h-.4v3.3h16.9c7 0 12.4-1.1 16.6-3.4 5.3-2.8 8.1-7.5 8.1-13 .1-7.2-4.5-11.7-13.7-13.4zM98.9 4.7c6.7 0 10.7 3.8 10.7 10.3 0 6.8-3.8 10-11.8 10.2h-.4v3.7h.4c9.9.2 14.7 4.1 14.7 11.8 0 3.5-1.2 11.7-12.5 11.9h-6.4V4.7h5.3z"></path><path pid="14" class="XMLID_41_ st7" d="M255.7 50.2c-2-2.1-3.6-4.2-6.7-8.6-2.4-3.5-5.7-8.8-7.2-11.6 6.9-3.3 10.4-8.1 10.4-14.5 0-4.9-2.1-8.9-5.8-11.3-3-2-7.1-2.9-13.5-2.9h-19.2v3.3h.4c4.4.5 4.9 1.2 4.9 7.3v33.6c0 6.2-.5 7-4.9 7.5h-.4v3.3h18.4V53h-.4c-4.4-.5-5-1.3-5-7.5V8.9 4.8H231.9c3.5.1 11.5 1.3 11.5 11.9 0 4.5-1.4 7.7-4.4 10-1.8 1.5-4.2 2.2-8.1 2.3h-.4v3.6h.4c2.6.3 3.7 1.3 4.8 3 .5.9 1.1 1.8 1.6 2.7 2.1 3.5 4.5 7.4 6.8 10.7 3.8 5.5 7.3 7.4 13.8 7.8.9.1 2 .1 3 .1h.3l.4-2.9-.3-.1c-1.5-.3-3.4-1.1-5.6-3.7z"></path><path pid="15" class="XMLID_40_ st7" d="M374.2 54.1c-.5-2.2-.6-4.7-.6-7.8v-7.2c0-1.2.1-8.3.1-8.3v-.4h-13.5v3.4h.4c4.8.6 5.1 1.4 5.1 6.5v7.1c0 3.5-1.1 4.4-2.4 5.1-1.8.9-4.3 1.4-7.1 1.4-11 0-22.8-8.1-22.8-25.7 0-14.8 8.3-24.4 21.1-24.4 9.3 0 14.2 3.9 15.9 12.7l.1.4 2.7-.7V2.5l-.3-.1c-.4-.1-.9-.2-1.5-.3-3.4-.8-9-2.1-15-2.1-8.6 0-16.6 2.6-22.3 7.2-6.5 5.2-10 12.8-10 21.9 0 17 12.5 28.5 31.1 28.5 5.8 0 11.8-1.4 16.6-2.5.7-.2 1.5-.3 2.2-.5l.4-.1-.2-.4z"></path><path pid="16" class="XMLID_39_ st7" d="M185.2 44.2c-1 2.4-2.2 4.5-3.3 5.8-1.8 2.1-4.1 2.7-10.2 2.7h-10.3V29.9l7.3.1 12 1.1v-6.8l-11.9 1.4-7.4.1V4.9H172c4.4.1 6.2.7 7.2 2.2 1 1.6 1.7 3.2 2.2 5.4l.1.4 3.5-.6-.2-2.7c-.2-3.2-.4-6.5-.4-8v-.4h-36.6v3.2h.4c4.8.4 5.4.9 5.4 7.7v33.2c0 5.9-.4 6.9-6 7.5h-.4v3.3h39.1l.1-.3c.6-2 1.7-7.1 2.5-10.9l.1-.4-3.5-.8-.3.5z"></path><path pid="17" class="XMLID_38_ st7" d="M282 4.5h.4c4.5.5 5 1.3 5 7.5v33.4c0 6.2-.5 7-5 7.5h-.4v3.3h18.9v-3.3h-.4c-4.8-.5-5.3-1.2-5.3-7.5V12c0-6.3.5-7.1 5.3-7.5h.4V1.2H282v3.3z"></path></g></g> </svg>